<mxfile host="www.draw.io" modified="2020-01-25T10:37:21.502Z" agent="Mozilla/5.0 (Macintosh; Intel Mac OS X 10_14_6) AppleWebKit/537.36 (KHTML, like Gecko) Chrome/78.0.3904.97 YaBrowser/19.12.0.769 Yowser/2.5 Safari/537.36" etag="rTjt4aclwioblO825oFO" version="12.5.7" type="github">
  <diagram id="52ZCqMLwsVmzUz452-O7" name="Page-1">
    <mxGraphModel dx="2404" dy="863" grid="1" gridSize="10" guides="1" tooltips="1" connect="1" arrows="1" fold="1" page="1" pageScale="1" pageWidth="827" pageHeight="1169" math="0" shadow="0">
      <root>
        <mxCell id="0"/>
        <mxCell id="1" parent="0"/>
        <mxCell id="HfN5RrsyJ5RLIsefFfvJ-1" value="" style="rounded=0;whiteSpace=wrap;html=1;fillColor=#dae8fc;strokeColor=#6c8ebf;" parent="1" vertex="1">
          <mxGeometry x="-270" y="230" width="480" height="360" as="geometry"/>
        </mxCell>
        <mxCell id="HfN5RrsyJ5RLIsefFfvJ-2" value="users" style="swimlane;fontStyle=0;childLayout=stackLayout;horizontal=1;startSize=26;fillColor=#f5f5f5;horizontalStack=0;resizeParent=1;resizeParentMax=0;resizeLast=0;collapsible=1;marginBottom=0;strokeColor=#666666;fontColor=#333333;" parent="1" vertex="1">
          <mxGeometry x="-256.71" y="320" width="200" height="238" as="geometry"/>
        </mxCell>
        <mxCell id="HfN5RrsyJ5RLIsefFfvJ-3" value="+ id: BIGSERIAL" style="text;align=left;verticalAlign=top;spacingLeft=4;spacingRight=4;overflow=hidden;rotatable=0;points=[[0,0.5],[1,0.5]];portConstraint=eastwest;fillColor=#ffffff;" parent="HfN5RrsyJ5RLIsefFfvJ-2" vertex="1">
          <mxGeometry y="26" width="200" height="26" as="geometry"/>
        </mxCell>
        <mxCell id="HfN5RrsyJ5RLIsefFfvJ-4" value="+ status: varchar(100)" style="text;align=left;verticalAlign=top;spacingLeft=4;spacingRight=4;overflow=hidden;rotatable=0;points=[[0,0.5],[1,0.5]];portConstraint=eastwest;fillColor=#ffffff;" parent="HfN5RrsyJ5RLIsefFfvJ-2" vertex="1">
          <mxGeometry y="52" width="200" height="26" as="geometry"/>
        </mxCell>
        <mxCell id="HfN5RrsyJ5RLIsefFfvJ-5" value="+Â registerad_at: TIMESTAMPTZ" style="text;align=left;verticalAlign=top;spacingLeft=4;spacingRight=4;overflow=hidden;rotatable=0;points=[[0,0.5],[1,0.5]];portConstraint=eastwest;fillColor=#ffffff;" parent="HfN5RrsyJ5RLIsefFfvJ-2" vertex="1">
          <mxGeometry y="78" width="200" height="32" as="geometry"/>
        </mxCell>
        <mxCell id="HfN5RrsyJ5RLIsefFfvJ-8" value="+ username: varchar(100)" style="text;align=left;verticalAlign=top;spacingLeft=4;spacingRight=4;overflow=hidden;rotatable=0;points=[[0,0.5],[1,0.5]];portConstraint=eastwest;fillColor=#ffffff;" parent="HfN5RrsyJ5RLIsefFfvJ-2" vertex="1">
          <mxGeometry y="110" width="200" height="32" as="geometry"/>
        </mxCell>
        <mxCell id="HfN5RrsyJ5RLIsefFfvJ-9" value="+ password: varchar(255)" style="text;align=left;verticalAlign=top;spacingLeft=4;spacingRight=4;overflow=hidden;rotatable=0;points=[[0,0.5],[1,0.5]];portConstraint=eastwest;fillColor=#ffffff;" parent="HfN5RrsyJ5RLIsefFfvJ-2" vertex="1">
          <mxGeometry y="142" width="200" height="32" as="geometry"/>
        </mxCell>
        <mxCell id="HfN5RrsyJ5RLIsefFfvJ-10" value="+ first_name: varchar(100)" style="text;align=left;verticalAlign=top;spacingLeft=4;spacingRight=4;overflow=hidden;rotatable=0;points=[[0,0.5],[1,0.5]];portConstraint=eastwest;fillColor=#ffffff;" parent="HfN5RrsyJ5RLIsefFfvJ-2" vertex="1">
          <mxGeometry y="174" width="200" height="32" as="geometry"/>
        </mxCell>
        <mxCell id="HfN5RrsyJ5RLIsefFfvJ-12" value="+ last_name: varchar(100)" style="text;align=left;verticalAlign=top;spacingLeft=4;spacingRight=4;overflow=hidden;rotatable=0;points=[[0,0.5],[1,0.5]];portConstraint=eastwest;fillColor=#ffffff;" parent="HfN5RrsyJ5RLIsefFfvJ-2" vertex="1">
          <mxGeometry y="206" width="200" height="32" as="geometry"/>
        </mxCell>
        <mxCell id="HfN5RrsyJ5RLIsefFfvJ-14" value="user_roles" style="swimlane;fontStyle=0;childLayout=stackLayout;horizontal=1;startSize=26;fillColor=#f5f5f5;horizontalStack=0;resizeParent=1;resizeParentMax=0;resizeLast=0;collapsible=1;marginBottom=0;strokeColor=#666666;fontColor=#333333;" parent="1" vertex="1">
          <mxGeometry x="-10" y="310" width="200" height="104" as="geometry"/>
        </mxCell>
        <mxCell id="HfN5RrsyJ5RLIsefFfvJ-15" value="+ id: BIGSERIAL" style="text;align=left;verticalAlign=top;spacingLeft=4;spacingRight=4;overflow=hidden;rotatable=0;points=[[0,0.5],[1,0.5]];portConstraint=eastwest;fillColor=#ffffff;" parent="HfN5RrsyJ5RLIsefFfvJ-14" vertex="1">
          <mxGeometry y="26" width="200" height="26" as="geometry"/>
        </mxCell>
        <mxCell id="HfN5RrsyJ5RLIsefFfvJ-16" value="+ user_id: BIGINT" style="text;align=left;verticalAlign=top;spacingLeft=4;spacingRight=4;overflow=hidden;rotatable=0;points=[[0,0.5],[1,0.5]];portConstraint=eastwest;fillColor=#ffffff;" parent="HfN5RrsyJ5RLIsefFfvJ-14" vertex="1">
          <mxGeometry y="52" width="200" height="26" as="geometry"/>
        </mxCell>
        <mxCell id="HfN5RrsyJ5RLIsefFfvJ-22" value="+ roles_id: BIGINT" style="text;align=left;verticalAlign=top;spacingLeft=4;spacingRight=4;overflow=hidden;rotatable=0;points=[[0,0.5],[1,0.5]];portConstraint=eastwest;fillColor=#ffffff;" parent="HfN5RrsyJ5RLIsefFfvJ-14" vertex="1">
          <mxGeometry y="78" width="200" height="26" as="geometry"/>
        </mxCell>
        <mxCell id="HfN5RrsyJ5RLIsefFfvJ-23" style="edgeStyle=orthogonalEdgeStyle;rounded=0;orthogonalLoop=1;jettySize=auto;html=1;" parent="1" source="HfN5RrsyJ5RLIsefFfvJ-16" target="HfN5RrsyJ5RLIsefFfvJ-3" edge="1">
          <mxGeometry relative="1" as="geometry"/>
        </mxCell>
        <mxCell id="HfN5RrsyJ5RLIsefFfvJ-24" value="roles" style="swimlane;fontStyle=0;childLayout=stackLayout;horizontal=1;startSize=26;fillColor=#f5f5f5;horizontalStack=0;resizeParent=1;resizeParentMax=0;resizeLast=0;collapsible=1;marginBottom=0;strokeColor=#666666;fontColor=#333333;" parent="1" vertex="1">
          <mxGeometry x="-10" y="440" width="200" height="130" as="geometry"/>
        </mxCell>
        <mxCell id="HfN5RrsyJ5RLIsefFfvJ-25" value="+ id: BIGSERIAL" style="text;align=left;verticalAlign=top;spacingLeft=4;spacingRight=4;overflow=hidden;rotatable=0;points=[[0,0.5],[1,0.5]];portConstraint=eastwest;fillColor=#ffffff;" parent="HfN5RrsyJ5RLIsefFfvJ-24" vertex="1">
          <mxGeometry y="26" width="200" height="26" as="geometry"/>
        </mxCell>
        <mxCell id="HfN5RrsyJ5RLIsefFfvJ-26" value="+ status: varchar(100)" style="text;align=left;verticalAlign=top;spacingLeft=4;spacingRight=4;overflow=hidden;rotatable=0;points=[[0,0.5],[1,0.5]];portConstraint=eastwest;fillColor=#ffffff;" parent="HfN5RrsyJ5RLIsefFfvJ-24" vertex="1">
          <mxGeometry y="52" width="200" height="26" as="geometry"/>
        </mxCell>
        <mxCell id="HfN5RrsyJ5RLIsefFfvJ-27" value="+ registered_at: TIMESTAMPTZ" style="text;align=left;verticalAlign=top;spacingLeft=4;spacingRight=4;overflow=hidden;rotatable=0;points=[[0,0.5],[1,0.5]];portConstraint=eastwest;fillColor=#ffffff;" parent="HfN5RrsyJ5RLIsefFfvJ-24" vertex="1">
          <mxGeometry y="78" width="200" height="26" as="geometry"/>
        </mxCell>
        <mxCell id="HfN5RrsyJ5RLIsefFfvJ-28" value="+ name: varchar(100)" style="text;align=left;verticalAlign=top;spacingLeft=4;spacingRight=4;overflow=hidden;rotatable=0;points=[[0,0.5],[1,0.5]];portConstraint=eastwest;fillColor=#ffffff;" parent="HfN5RrsyJ5RLIsefFfvJ-24" vertex="1">
          <mxGeometry y="104" width="200" height="26" as="geometry"/>
        </mxCell>
        <mxCell id="HfN5RrsyJ5RLIsefFfvJ-29" value="Gateway-service (PostgreSQL)" style="text;strokeColor=none;fillColor=none;html=1;fontSize=24;fontStyle=1;verticalAlign=middle;align=center;" parent="1" vertex="1">
          <mxGeometry x="-81.5" y="250" width="103" height="40" as="geometry"/>
        </mxCell>
        <mxCell id="HfN5RrsyJ5RLIsefFfvJ-32" style="edgeStyle=orthogonalEdgeStyle;rounded=0;orthogonalLoop=1;jettySize=auto;html=1;entryX=0;entryY=0.5;entryDx=0;entryDy=0;" parent="1" target="HfN5RrsyJ5RLIsefFfvJ-25" edge="1">
          <mxGeometry relative="1" as="geometry">
            <mxPoint x="-10" y="400" as="sourcePoint"/>
            <Array as="points">
              <mxPoint x="-30" y="400"/>
              <mxPoint x="-30" y="479"/>
            </Array>
          </mxGeometry>
        </mxCell>
        <mxCell id="HfN5RrsyJ5RLIsefFfvJ-98" style="edgeStyle=orthogonalEdgeStyle;rounded=0;orthogonalLoop=1;jettySize=auto;html=1;" parent="1" source="HfN5RrsyJ5RLIsefFfvJ-35" target="HfN5RrsyJ5RLIsefFfvJ-97" edge="1">
          <mxGeometry relative="1" as="geometry"/>
        </mxCell>
        <mxCell id="HfN5RrsyJ5RLIsefFfvJ-35" value="" style="rounded=0;whiteSpace=wrap;html=1;fillColor=#ffe6cc;strokeColor=#d79b00;" parent="1" vertex="1">
          <mxGeometry x="-750" y="667.5" width="480" height="380" as="geometry"/>
        </mxCell>
        <mxCell id="HfN5RrsyJ5RLIsefFfvJ-36" value="MeetingEvent" style="swimlane;fontStyle=0;childLayout=stackLayout;horizontal=1;startSize=26;horizontalStack=0;resizeParent=1;resizeParentMax=0;resizeLast=0;collapsible=1;marginBottom=0;fillColor=#f5f5f5;strokeColor=#666666;fontColor=#333333;" parent="1" vertex="1">
          <mxGeometry x="-736.71" y="747.5" width="426.71" height="260" as="geometry"/>
        </mxCell>
        <mxCell id="HfN5RrsyJ5RLIsefFfvJ-37" value="+ UUID: id" style="text;strokeColor=none;fillColor=#ffffff;align=left;verticalAlign=top;spacingLeft=4;spacingRight=4;overflow=hidden;rotatable=0;points=[[0,0.5],[1,0.5]];portConstraint=eastwest;" parent="HfN5RrsyJ5RLIsefFfvJ-36" vertex="1">
          <mxGeometry y="26" width="426.71" height="26" as="geometry"/>
        </mxCell>
        <mxCell id="HfN5RrsyJ5RLIsefFfvJ-38" value="+ String: title" style="text;strokeColor=none;fillColor=#ffffff;align=left;verticalAlign=top;spacingLeft=4;spacingRight=4;overflow=hidden;rotatable=0;points=[[0,0.5],[1,0.5]];portConstraint=eastwest;" parent="HfN5RrsyJ5RLIsefFfvJ-36" vertex="1">
          <mxGeometry y="52" width="426.71" height="26" as="geometry"/>
        </mxCell>
        <mxCell id="HfN5RrsyJ5RLIsefFfvJ-58" value="+ String: description" style="text;strokeColor=none;fillColor=#ffffff;align=left;verticalAlign=top;spacingLeft=4;spacingRight=4;overflow=hidden;rotatable=0;points=[[0,0.5],[1,0.5]];portConstraint=eastwest;" parent="HfN5RrsyJ5RLIsefFfvJ-36" vertex="1">
          <mxGeometry y="78" width="426.71" height="26" as="geometry"/>
        </mxCell>
        <mxCell id="HfN5RrsyJ5RLIsefFfvJ-59" value="+ Instant: created_at" style="text;strokeColor=none;fillColor=#ffffff;align=left;verticalAlign=top;spacingLeft=4;spacingRight=4;overflow=hidden;rotatable=0;points=[[0,0.5],[1,0.5]];portConstraint=eastwest;" parent="HfN5RrsyJ5RLIsefFfvJ-36" vertex="1">
          <mxGeometry y="104" width="426.71" height="26" as="geometry"/>
        </mxCell>
        <mxCell id="HfN5RrsyJ5RLIsefFfvJ-68" value="+ Instant: updated_at" style="text;strokeColor=none;fillColor=#ffffff;align=left;verticalAlign=top;spacingLeft=4;spacingRight=4;overflow=hidden;rotatable=0;points=[[0,0.5],[1,0.5]];portConstraint=eastwest;" parent="HfN5RrsyJ5RLIsefFfvJ-36" vertex="1">
          <mxGeometry y="130" width="426.71" height="26" as="geometry"/>
        </mxCell>
        <mxCell id="HfN5RrsyJ5RLIsefFfvJ-60" value="+ String: createdBy" style="text;strokeColor=none;fillColor=#ffffff;align=left;verticalAlign=top;spacingLeft=4;spacingRight=4;overflow=hidden;rotatable=0;points=[[0,0.5],[1,0.5]];portConstraint=eastwest;" parent="HfN5RrsyJ5RLIsefFfvJ-36" vertex="1">
          <mxGeometry y="156" width="426.71" height="26" as="geometry"/>
        </mxCell>
        <mxCell id="HfN5RrsyJ5RLIsefFfvJ-69" value="+ String: lastModifiedBy" style="text;strokeColor=none;fillColor=#ffffff;align=left;verticalAlign=top;spacingLeft=4;spacingRight=4;overflow=hidden;rotatable=0;points=[[0,0.5],[1,0.5]];portConstraint=eastwest;" parent="HfN5RrsyJ5RLIsefFfvJ-36" vertex="1">
          <mxGeometry y="182" width="426.71" height="26" as="geometry"/>
        </mxCell>
        <mxCell id="HfN5RrsyJ5RLIsefFfvJ-70" value="+ Status: status" style="text;strokeColor=none;fillColor=#ffffff;align=left;verticalAlign=top;spacingLeft=4;spacingRight=4;overflow=hidden;rotatable=0;points=[[0,0.5],[1,0.5]];portConstraint=eastwest;" parent="HfN5RrsyJ5RLIsefFfvJ-36" vertex="1">
          <mxGeometry y="208" width="426.71" height="26" as="geometry"/>
        </mxCell>
        <mxCell id="HfN5RrsyJ5RLIsefFfvJ-71" value="+ Long: version" style="text;strokeColor=none;fillColor=#ffffff;align=left;verticalAlign=top;spacingLeft=4;spacingRight=4;overflow=hidden;rotatable=0;points=[[0,0.5],[1,0.5]];portConstraint=eastwest;" parent="HfN5RrsyJ5RLIsefFfvJ-36" vertex="1">
          <mxGeometry y="234" width="426.71" height="26" as="geometry"/>
        </mxCell>
        <mxCell id="HfN5RrsyJ5RLIsefFfvJ-54" value="Meeting-service (MongoDb)" style="text;strokeColor=none;fillColor=none;html=1;fontSize=24;fontStyle=1;verticalAlign=middle;align=center;" parent="1" vertex="1">
          <mxGeometry x="-561.5" y="687.5" width="103" height="40" as="geometry"/>
        </mxCell>
        <mxCell id="HfN5RrsyJ5RLIsefFfvJ-74" value="" style="rounded=0;whiteSpace=wrap;html=1;fillColor=#d5e8d4;strokeColor=#82b366;" parent="1" vertex="1">
          <mxGeometry x="180" y="677.5000000000001" width="480" height="360" as="geometry"/>
        </mxCell>
        <mxCell id="HfN5RrsyJ5RLIsefFfvJ-75" value="MeetingEvent" style="swimlane;fontStyle=0;childLayout=stackLayout;horizontal=1;startSize=26;horizontalStack=0;resizeParent=1;resizeParentMax=0;resizeLast=0;collapsible=1;marginBottom=0;fillColor=#f5f5f5;strokeColor=#666666;fontColor=#333333;" parent="1" vertex="1">
          <mxGeometry x="193.28999999999996" y="757.5000000000001" width="426.71" height="234" as="geometry"/>
        </mxCell>
        <mxCell id="HfN5RrsyJ5RLIsefFfvJ-76" value="+ UUID: id" style="text;align=left;verticalAlign=top;spacingLeft=4;spacingRight=4;overflow=hidden;rotatable=0;points=[[0,0.5],[1,0.5]];portConstraint=eastwest;fillColor=#ffffff;" parent="HfN5RrsyJ5RLIsefFfvJ-75" vertex="1">
          <mxGeometry y="26" width="426.71" height="26" as="geometry"/>
        </mxCell>
        <mxCell id="HfN5RrsyJ5RLIsefFfvJ-77" value="+ String: title" style="text;strokeColor=none;fillColor=#ffffff;align=left;verticalAlign=top;spacingLeft=4;spacingRight=4;overflow=hidden;rotatable=0;points=[[0,0.5],[1,0.5]];portConstraint=eastwest;" parent="HfN5RrsyJ5RLIsefFfvJ-75" vertex="1">
          <mxGeometry y="52" width="426.71" height="26" as="geometry"/>
        </mxCell>
        <mxCell id="HfN5RrsyJ5RLIsefFfvJ-78" value="+ String: description" style="text;strokeColor=none;fillColor=#ffffff;align=left;verticalAlign=top;spacingLeft=4;spacingRight=4;overflow=hidden;rotatable=0;points=[[0,0.5],[1,0.5]];portConstraint=eastwest;" parent="HfN5RrsyJ5RLIsefFfvJ-75" vertex="1">
          <mxGeometry y="78" width="426.71" height="26" as="geometry"/>
        </mxCell>
        <mxCell id="HfN5RrsyJ5RLIsefFfvJ-79" value="+ String: created_at" style="text;strokeColor=none;fillColor=#ffffff;align=left;verticalAlign=top;spacingLeft=4;spacingRight=4;overflow=hidden;rotatable=0;points=[[0,0.5],[1,0.5]];portConstraint=eastwest;" parent="HfN5RrsyJ5RLIsefFfvJ-75" vertex="1">
          <mxGeometry y="104" width="426.71" height="26" as="geometry"/>
        </mxCell>
        <mxCell id="HfN5RrsyJ5RLIsefFfvJ-80" value="+ String: updated_at" style="text;strokeColor=none;fillColor=#ffffff;align=left;verticalAlign=top;spacingLeft=4;spacingRight=4;overflow=hidden;rotatable=0;points=[[0,0.5],[1,0.5]];portConstraint=eastwest;" parent="HfN5RrsyJ5RLIsefFfvJ-75" vertex="1">
          <mxGeometry y="130" width="426.71" height="26" as="geometry"/>
        </mxCell>
        <mxCell id="HfN5RrsyJ5RLIsefFfvJ-81" value="+ String: createdBy" style="text;strokeColor=none;fillColor=#ffffff;align=left;verticalAlign=top;spacingLeft=4;spacingRight=4;overflow=hidden;rotatable=0;points=[[0,0.5],[1,0.5]];portConstraint=eastwest;" parent="HfN5RrsyJ5RLIsefFfvJ-75" vertex="1">
          <mxGeometry y="156" width="426.71" height="26" as="geometry"/>
        </mxCell>
        <mxCell id="HfN5RrsyJ5RLIsefFfvJ-82" value="+ String: lastModifiedBy" style="text;align=left;verticalAlign=top;spacingLeft=4;spacingRight=4;overflow=hidden;rotatable=0;points=[[0,0.5],[1,0.5]];portConstraint=eastwest;fillColor=#ffffff;" parent="HfN5RrsyJ5RLIsefFfvJ-75" vertex="1">
          <mxGeometry y="182" width="426.71" height="26" as="geometry"/>
        </mxCell>
        <mxCell id="HfN5RrsyJ5RLIsefFfvJ-83" value="+ Status: status" style="text;align=left;verticalAlign=top;spacingLeft=4;spacingRight=4;overflow=hidden;rotatable=0;points=[[0,0.5],[1,0.5]];portConstraint=eastwest;fillColor=#ffffff;" parent="HfN5RrsyJ5RLIsefFfvJ-75" vertex="1">
          <mxGeometry y="208" width="426.71" height="26" as="geometry"/>
        </mxCell>
        <mxCell id="HfN5RrsyJ5RLIsefFfvJ-85" value="Search-service (ElasticSearch)" style="text;strokeColor=none;fillColor=none;html=1;fontSize=24;fontStyle=1;verticalAlign=middle;align=center;" parent="1" vertex="1">
          <mxGeometry x="368.5" y="697.5000000000001" width="103" height="40" as="geometry"/>
        </mxCell>
        <mxCell id="HfN5RrsyJ5RLIsefFfvJ-100" style="edgeStyle=orthogonalEdgeStyle;rounded=0;orthogonalLoop=1;jettySize=auto;html=1;entryX=0;entryY=0.5;entryDx=0;entryDy=0;" parent="1" source="HfN5RrsyJ5RLIsefFfvJ-97" target="HfN5RrsyJ5RLIsefFfvJ-74" edge="1">
          <mxGeometry relative="1" as="geometry"/>
        </mxCell>
        <mxCell id="HfN5RrsyJ5RLIsefFfvJ-97" value="" style="shape=ext;double=1;rounded=1;whiteSpace=wrap;html=1;fillColor=#f8cecc;strokeColor=#b85450;arcSize=50;" parent="1" vertex="1">
          <mxGeometry x="-180" y="795" width="294" height="125" as="geometry"/>
        </mxCell>
        <mxCell id="HfN5RrsyJ5RLIsefFfvJ-93" value="MessageBroker&lt;br&gt;(Redis)" style="text;strokeColor=none;fillColor=none;html=1;fontSize=24;fontStyle=1;verticalAlign=middle;align=center;" parent="1" vertex="1">
          <mxGeometry x="-84.5" y="837.5000000000001" width="103" height="40" as="geometry"/>
        </mxCell>
        <mxCell id="HfN5RrsyJ5RLIsefFfvJ-101" style="edgeStyle=orthogonalEdgeStyle;rounded=0;orthogonalLoop=1;jettySize=auto;html=1;entryX=0;entryY=0.5;entryDx=0;entryDy=0;" parent="1" target="HfN5RrsyJ5RLIsefFfvJ-60" edge="1">
          <mxGeometry relative="1" as="geometry">
            <mxPoint x="-259" y="446" as="sourcePoint"/>
            <Array as="points">
              <mxPoint x="-809" y="446"/>
              <mxPoint x="-809" y="916"/>
            </Array>
          </mxGeometry>
        </mxCell>
        <mxCell id="HfN5RrsyJ5RLIsefFfvJ-102" style="edgeStyle=orthogonalEdgeStyle;rounded=0;orthogonalLoop=1;jettySize=auto;html=1;entryX=0;entryY=0.5;entryDx=0;entryDy=0;exitX=0;exitY=0.5;exitDx=0;exitDy=0;" parent="1" source="HfN5RrsyJ5RLIsefFfvJ-8" target="HfN5RrsyJ5RLIsefFfvJ-69" edge="1">
          <mxGeometry relative="1" as="geometry">
            <Array as="points">
              <mxPoint x="-809" y="446"/>
              <mxPoint x="-809" y="942"/>
            </Array>
          </mxGeometry>
        </mxCell>
      </root>
    </mxGraphModel>
  </diagram>
</mxfile>
